# xmcd
#
# Track frame offsets:
#	150
#	16691
#	27671
#	39940
#	52661
#	65919
#	75532
#	84401
#	94297
#	104560
#	114618
#	126554
#	137202
#	147746
#	158908
#	170441
#	183451
#	195002
#	207281
#	216013
#	227806
#
# Disc length: 3209 seconds
#
# Revision: 0
# Processed by: cddbd v1.5.2PL0 Copyright (c) Steve Scherf et al.
# Submitted via: audiograbber 1.83.01
#
DISCID=2a0c8715
DTITLE=Various Artist - 125 Country Hits CD 2
DYEAR=1900
DGENRE=Country
TTITLE0=FRANKIE LAINE - I Believe In You
TTITLE1=GENE AUTRY - You Are My Sunshine
TTITLE2=JOHNNY CASH - I Walk The Line
TTITLE3=BOBBY HELMS - Fraulein
TTITLE4=FERLIN HUSKY - Country Music Is There To Stay
TTITLE5=LORETTA LYNN - You Ain't Woman Enough To Take My Man
TTITLE6=FARON YOUNG - Alone With You
TTITLE7=JOHNNY CASH - Hey Porter
TTITLE8=JIM REEVES - Just Call Me Lonesome
TTITLE9=WILLIE NELSON - Pride Wins Again
TTITLE10=JIM REEVES - Mexican Joe
TTITLE11=HANK LOCKLIN - Please Help Me I'm Falling
TTITLE12=TEX RITTER - Have I Stayed Away Too Long
TTITLE13=DON GIBSON - Oh, Lonesome Me
TTITLE14=FREDDY FENDER - Before The Next Teardrop Falls
TTITLE15=HANK WILLIAMS - On The Banks Of The Old Pontchartrain
TTITLE16=BARBARA FAIRCHILD - Cheating IS
TTITLE17=BILLIE JO SPEARS - What I've Got In Mind
TTITLE18=SANDY POSEY - Born A Woman
TTITLE19=WILMA BURGESS - Misty Blue
TTITLE20=KENNY ROGERS - Ruben James
EXTD=
EXTT0=
EXTT1=
EXTT2=
EXTT3=
EXTT4=
EXTT5=
EXTT6=
EXTT7=
EXTT8=
EXTT9=
EXTT10=
EXTT11=
EXTT12=
EXTT13=
EXTT14=
EXTT15=
EXTT16=
EXTT17=
EXTT18=
EXTT19=
EXTT20=
PLAYORDER=
